<svg width="15" height="15" viewBox="0 0 15 15" fill="none" xmlns="http://www.w3.org/2000/svg">
<g clip-path="url(#clip0_101_297)">
<path d="M11.4683 2.67524C11.2939 2.67524 11.1234 2.72696 10.9784 2.82386C10.8334 2.92075 10.7204 3.05848 10.6536 3.21962C10.5869 3.38076 10.5694 3.55807 10.6034 3.72914C10.6375 3.9002 10.7214 4.05733 10.8448 4.18066C10.9681 4.30399 11.1252 4.38798 11.2963 4.422C11.4674 4.45603 11.6447 4.43856 11.8058 4.37182C11.9669 4.30507 12.1047 4.19204 12.2016 4.04702C12.2985 3.902 12.3502 3.73151 12.3502 3.55709C12.3502 3.32321 12.2573 3.09891 12.0919 2.93353C11.9265 2.76815 11.7022 2.67524 11.4683 2.67524Z" fill="#2E526B"/>
<path d="M7.55935 3.80723C6.82798 3.80723 6.11303 4.02417 5.50497 4.43059C4.89691 4.83701 4.42307 5.41465 4.14337 6.09044C3.86368 6.76622 3.79071 7.50978 3.93371 8.22705C4.0767 8.94431 4.42923 9.60305 4.94669 10.1199C5.46415 10.6368 6.12328 10.9885 6.84071 11.1307C7.55814 11.2729 8.30161 11.1991 8.97708 10.9186C9.65254 10.6381 10.2296 10.1636 10.6354 9.5551C11.0411 8.94657 11.2572 8.23138 11.2564 7.5C11.2552 6.52023 10.8652 5.58097 10.172 4.88856C9.47884 4.19615 8.53913 3.80723 7.55935 3.80723ZM7.55935 9.86998C7.09044 9.87082 6.63182 9.73253 6.24152 9.47263C5.85122 9.21272 5.54679 8.84287 5.36676 8.40989C5.18673 7.97691 5.13919 7.50025 5.23015 7.04024C5.32112 6.58023 5.54651 6.15754 5.87779 5.82567C6.20907 5.4938 6.63135 5.26766 7.0912 5.17587C7.55105 5.08407 8.02778 5.13077 8.46109 5.31002C8.89439 5.48927 9.26479 5.79304 9.5254 6.18287C9.786 6.5727 9.9251 7.03108 9.92511 7.5C9.92678 7.81194 9.86685 8.12115 9.74877 8.40988C9.63068 8.69861 9.45675 8.96119 9.23696 9.18255C9.01717 9.40392 8.75584 9.57972 8.46796 9.69987C8.18008 9.82001 7.8713 9.88215 7.55935 9.8827V9.86998Z" fill="#2E526B"/>
<path d="M10.5059 15.0042H4.50254C3.30835 15.002 2.16377 14.5263 1.31974 13.6815C0.475712 12.8367 0.00112026 11.6917 0 10.4975V4.50679C0.00112026 3.31259 0.475712 2.16756 1.31974 1.32274C2.16377 0.477919 3.30835 0.0022442 4.50254 0H10.5059C11.7009 0.00112253 12.8465 0.476303 13.6915 1.32125C14.5364 2.16619 15.0116 3.31186 15.0127 4.50679V10.4975C15.0116 11.6924 14.5364 12.8381 13.6915 13.683C12.8465 14.5279 11.7009 15.0031 10.5059 15.0042ZM4.50254 1.40333C3.68239 1.40557 2.89648 1.73237 2.31655 2.3123C1.73661 2.89224 1.40982 3.67816 1.40758 4.4983V10.489C1.40982 11.3091 1.73661 12.095 2.31655 12.675C2.89648 13.2549 3.68239 13.5817 4.50254 13.5839H10.5059C11.3261 13.5817 12.112 13.2549 12.6919 12.675C13.2719 12.095 13.5987 11.3091 13.6009 10.489V4.50679C13.6009 3.68517 13.2751 2.89707 12.6949 2.3153C12.1147 1.73354 11.3276 1.40558 10.5059 1.40333H4.50254Z" fill="#2E526B"/>
</g>
<defs>
<clipPath id="clip0_101_297">
<rect width="15" height="15" fill="white"/>
</clipPath>
</defs>
</svg>
