<svg width="15" height="13" viewBox="0 0 15 13" fill="none" xmlns="http://www.w3.org/2000/svg">
<path d="M14.9372 1.55796C14.453 1.77738 13.9441 1.93051 13.4229 2.01358C13.6671 1.96949 14.023 1.50284 14.1661 1.31545C14.3907 1.0295 14.5623 0.701707 14.672 0.349086C14.672 0.323365 14.693 0.286621 14.672 0.268249C14.6595 0.261767 14.6458 0.258392 14.6319 0.258392C14.618 0.258392 14.6043 0.261767 14.5918 0.268249C14.023 0.591051 13.4182 0.837914 12.7914 1.00313C12.7698 1.00982 12.7469 1.00992 12.7252 1.00341C12.7036 0.996907 12.6842 0.984064 12.6692 0.966381C12.6214 0.905615 12.5689 0.849088 12.5122 0.797362C12.251 0.563285 11.9567 0.3736 11.6399 0.235175C11.2163 0.0549086 10.7594 -0.0217248 10.3036 0.0110423C9.8615 0.0381105 9.42986 0.16333 9.037 0.378481C8.6425 0.595648 8.29454 0.895794 8.01467 1.26033C7.72296 1.63593 7.51437 2.07525 7.40406 2.54637C7.30708 2.99264 7.29521 3.45476 7.36917 3.90589C7.36917 3.98306 7.36916 3.99408 7.30985 3.98306C4.8395 3.61562 2.77392 2.66395 1.12702 0.676106C1.05724 0.591595 1.01885 0.591595 0.959538 0.676106C0.230298 1.82619 0.582706 3.67074 1.49338 4.57464C1.61325 4.70481 1.74024 4.8275 1.8737 4.94208C1.45666 4.90457 1.05094 4.77964 0.680397 4.57464C0.607124 4.52687 0.572237 4.55626 0.565258 4.64077C0.560814 4.76368 0.567825 4.88675 0.586193 5.00821C0.658678 5.59373 0.877429 6.1485 1.2201 6.61587C1.56277 7.08324 2.01708 7.44648 2.53664 7.66847C2.66404 7.72664 2.79758 7.76858 2.93442 7.7934C2.5496 7.87486 2.1546 7.88852 1.76554 7.83382C1.67831 7.83382 1.64691 7.85954 1.67831 7.94773C2.19471 9.41748 3.30427 9.86209 4.12074 10.1156C4.23239 10.134 4.34404 10.134 4.46966 10.1634C4.46966 10.1634 4.46966 10.1634 4.46966 10.1818C4.19401 10.6264 3.23449 10.9571 2.79136 11.1187C1.97456 11.4253 1.10465 11.5431 0.240767 11.4641C0.104689 11.4421 0.0767693 11.4421 0.0383882 11.4641C7.22706e-06 11.4862 0.0383938 11.5229 0.0767748 11.5597C0.251234 11.6809 0.425689 11.7875 0.607127 11.8903C1.1485 12.1959 1.72085 12.4363 2.31334 12.6069C5.37336 13.4997 8.82416 12.8457 11.1235 10.439C12.9274 8.55033 13.566 5.94518 13.566 3.33636C13.566 3.23348 13.6811 3.17836 13.7509 3.12325C14.2082 2.74952 14.6114 2.30763 14.9477 1.81149C15.0015 1.74072 15.0299 1.65226 15.0279 1.56163C15 1.51754 15 1.52856 14.9372 1.55796Z" fill="#2E526B"/>
</svg>
